<svg id="visual" viewBox="0 0 900 600" width="900" height="600" xmlns="http://www.w3.org/2000/svg" xmlns:xlink="http://www.w3.org/1999/xlink" version="1.1"><rect x="0" y="0" width="900" height="600" fill="#1B2C3E"></rect><path d="M0 418L21.5 417.3C43 416.7 86 415.3 128.8 423.8C171.7 432.3 214.3 450.7 257.2 453.8C300 457 343 445 385.8 438.3C428.7 431.7 471.3 430.3 514.2 437.7C557 445 600 461 642.8 467.8C685.7 474.7 728.3 472.3 771.2 467.3C814 462.3 857 454.7 878.5 450.8L900 447L900 601L878.5 601C857 601 814 601 771.2 601C728.3 601 685.7 601 642.8 601C600 601 557 601 514.2 601C471.3 601 428.7 601 385.8 601C343 601 300 601 257.2 601C214.3 601 171.7 601 128.8 601C86 601 43 601 21.5 601L0 601Z" fill="#1B2C3E" stroke-linecap="round" stroke-linejoin="miter"></path></svg>